<svg width="37" height="90" viewBox="0 0 58 135" fill="none" xmlns="http://www.w3.org/2000/svg">
<path d="M41.7814 23.89L41.5544 14.2255L14.2815 14.8659L14.5085 24.5304C14.7913 36.5744 1.56257 45.6758 1.99584 64.1262L3.4212 124.822C3.54843 130.24 15.7696 134.385 30.7423 134.033C45.7149 133.682 57.7289 129.004 57.6009 123.55L56.1755 62.8538C55.7431 44.4401 42.1008 35.9331 41.818 23.8891L41.7814 23.89Z" fill="#BDC3C7"/>
<path d="M30.581 128.726C17.695 129.029 10.0747 125.838 8.64577 124.26L7.23074 64.0032C7.02442 55.2173 10.499 48.7625 13.8323 42.5307C16.815 36.9664 19.9024 31.1799 19.7434 24.4075L19.6402 20.0145L36.3334 19.6225L36.4366 24.0155C36.5956 30.7879 39.9503 36.3865 43.1918 41.8412C46.814 47.9097 50.5878 54.1943 50.7941 62.9802L52.2091 123.237C50.8925 124.879 43.4303 128.424 30.5078 128.728L30.581 128.726Z" fill="#D7DDE3"/>
<path d="M7.28576 66.3461L8.64491 124.223C10.0372 125.802 17.6575 128.993 30.5801 128.689C43.5027 128.386 50.9282 124.842 52.2815 123.198L50.9224 65.3214L7.32236 66.3453L7.28576 66.3461Z" fill="#ECF0F1"/>
<path d="M43.5221 15.3514C43.5952 18.463 36.6633 21.1898 28.0604 21.3918C19.4576 21.5938 12.4061 19.2321 12.3322 16.0838C12.2583 12.9355 19.1911 10.2454 27.7939 10.0434C36.3968 9.84134 43.4482 12.2031 43.5221 15.3514Z" fill="#C0392B"/>
<path d="M43.3141 6.49225L12.1241 7.22469L12.3322 16.0838L43.5221 15.3514L43.3141 6.49225Z" fill="#C0392B"/>
<path d="M43.3141 6.49226C43.3871 9.60393 36.4552 12.3307 27.8524 12.5327C19.2495 12.7347 12.1981 10.373 12.1242 7.22471C12.0502 4.07643 18.983 1.38628 27.5859 1.18426C36.1887 0.982235 43.2401 3.34398 43.3141 6.49226Z" fill="#E74C3C"/>
<path d="M38.6554 6.19874C38.7019 8.17557 33.8342 9.90151 27.7939 10.0434C21.7536 10.1852 16.8103 8.68966 16.7639 6.71283C16.7175 4.736 21.5851 3.01006 27.6254 2.86821C33.6657 2.72637 38.609 4.22191 38.6554 6.19874Z" fill="#F1C40F"/>
<path d="M50.9224 65.3214C51.0255 69.7143 41.3346 73.4948 29.2906 73.7777C17.2466 74.0605 7.38892 70.7391 7.28576 66.3461C7.1826 61.9532 16.8744 58.2093 28.9183 57.9265C40.9623 57.6436 50.8201 60.9651 50.9224 65.3214Z" fill="white"/>
<path d="M19.7646 79.8985C19.7895 80.9601 18.9673 81.8219 17.9056 81.8468C16.844 81.8717 15.9823 81.0495 15.9573 79.9879C15.9324 78.9263 16.7546 78.0645 17.8162 78.0396C18.8779 78.0147 19.7396 78.8369 19.7646 79.8985Z" fill="white"/>
<path d="M24.9087 88.3853C24.9345 89.4835 24.0773 90.4193 22.9425 90.446C21.8077 90.4726 20.9076 89.5781 20.8818 88.4798C20.856 87.3816 21.7131 86.4458 22.8479 86.4191C23.9828 86.3925 24.882 87.2504 24.9087 88.3853Z" fill="white"/>
<path d="M19.8142 96.0503C19.8409 97.1852 18.9471 98.1218 17.8123 98.1485C16.6775 98.1751 15.7408 97.2814 15.7141 96.1466C15.6875 95.0118 16.5812 94.0751 17.716 94.0484C18.8509 94.0218 19.7876 94.9155 19.8142 96.0503Z" fill="white"/>
<path d="M26.145 100.48C26.1716 101.615 25.2779 102.552 24.1431 102.578C23.0083 102.605 22.0716 101.711 22.0449 100.576C22.0183 99.4416 22.912 98.5049 24.0468 98.4782C25.1817 98.4516 26.1183 99.3453 26.145 100.48Z" fill="white"/>
<path d="M32.0219 104.298C32.0468 105.36 31.2246 106.221 30.163 106.246C29.1014 106.271 28.2396 105.449 28.2147 104.387C28.1897 103.326 29.0119 102.464 30.0736 102.439C31.1352 102.414 31.9969 103.236 32.0219 104.298Z" fill="white"/>
<path d="M24.5251 112.605C24.5535 113.814 23.624 114.788 22.416 114.816C21.2079 114.844 20.2338 113.915 20.2054 112.707C20.177 111.499 21.1065 110.525 22.3145 110.496C23.5226 110.468 24.4967 111.397 24.5251 112.605Z" fill="white"/>
</svg>
