<?xml version="1.0" encoding="utf-8"?>
<svg width="72px" height="49px" viewBox="1.247 0 64.753 43.046" fill="none" preserveAspectRatio="xMidYMid slice" xmlns="http://www.w3.org/2000/svg">
  <path d="M 6.344 41.233 C 4.527 40.744 3.344 38.304 3.131 36.277 C 3.042 35.323 3.364 34.045 4.28 33.535 C 5.422 32.911 6.795 32.717 8.248 32.546 C 9.254 32.427 10.286 32.293 11.295 32.002 C 14.322 31.128 15.684 28.962 17.119 26.685 C 18.742 24.113 19.843 21.227 20.891 18.457 C 22.296 14.766 23.62 11.291 26.053 8.525 C 33.034 0.598 44.574 1.797 54.948 4.026 C 56.176 4.291 57.242 4.513 58.251 4.785 C 62.328 5.882 64.598 7.423 64.17 12.07 C 63.621 18.134 60.843 24.595 56.322 30.219 C 54.44 32.548 52.313 34.66 49.969 36.454 C 49.804 36.583 49.634 36.732 49.444 36.875 C 48.888 37.332 48.194 37.903 47.753 37.849 C 47.087 37.67 45.816 36.441 45.059 35.717 C 44.61 35.293 44.196 34.901 43.876 34.641 C 43.056 33.988 42.201 33.303 41.72 32.438 C 41.386 31.829 41.199 30.913 41.636 30.337 L 40.108 28.693 C 36.421 31.055 32.351 31.216 28.038 31.398 C 27.206 31.434 26.374 31.469 25.542 31.505 C 21.938 31.705 16.728 32.403 13.268 35.931 C 12.638 36.584 12.078 37.299 11.543 37.999 C 10.448 39.415 9.42 40.74 7.982 41.176 C 7.391 41.363 6.828 41.363 6.323 41.227 L 6.344 41.233 Z" fill="#EAEFF0"/>
  <path d="M 19.267 30.207 C 19.305 30.066 19.308 29.893 19.326 29.747 C 18.834 30.047 18.22 30.077 17.695 29.936 C 16.095 31.215 14.152 32.164 12.696 33.634 C 11.508 34.83 10.716 36.327 9.354 37.367 C 6.505 39.588 3.337 37.523 4.434 34.009 C 4.527 33.666 4.718 33.436 4.925 33.232 C 4.705 33.324 4.465 33.411 4.26 33.529 C 3.344 34.04 3.027 35.297 3.111 36.272 C 3.298 38.314 4.507 40.739 6.323 41.227 C 6.828 41.363 7.396 41.343 7.982 41.176 C 9.42 40.74 10.448 39.415 11.543 37.999 C 12.078 37.299 12.638 36.584 13.268 35.931 C 15.241 33.908 17.8 32.843 20.281 32.233 C 19.618 31.881 19.098 31.157 19.247 30.202 L 19.267 30.207 Z" fill="#BDC3C7"/>
  <path d="M 65.32 12.141 C 65.947 5.145 60.839 4.096 55.212 2.885 C 45.226 0.739 32.797 -0.852 25.22 7.76 C 20.702 12.887 19.814 20.289 16.177 26.085 C 15.238 27.564 14.408 28.878 13.185 29.804 C 13.913 31.602 15.843 33.117 17.626 34.376 C 20.09 33.264 22.917 32.812 25.663 32.664 C 31.074 32.344 36.118 32.662 40.775 29.673 C 40.069 30.608 40.197 31.985 40.787 33.009 C 41.357 34.029 42.296 34.801 43.226 35.527 C 44.256 36.367 46.317 38.762 47.627 38.962 C 48.77 39.14 49.824 38.038 50.703 37.344 C 53.135 35.466 55.319 33.304 57.237 30.92 C 61.469 25.651 64.742 18.956 65.335 12.167 L 65.32 12.141 Z" fill="#F1BC91"/>
  <path d="M 65.32 12.141 C 65.426 11.022 65.362 10.053 65.174 9.223 C 65.116 11.935 64.181 14.605 63.112 17.37 C 61.82 20.724 60.226 25.122 57.056 27.17 C 53.234 29.626 49.484 26.669 49.284 22.827 C 46.873 23.261 44.437 22.822 42.43 21.351 C 41.489 20.665 38.288 17.596 39.227 16.442 C 36.589 19.65 34.45 23.014 30.85 25.292 C 26.229 28.227 20.637 30.424 15.364 31.841 C 15.084 31.917 14.82 31.933 14.593 31.893 C 15.454 32.796 16.529 33.626 17.566 34.36 C 20.029 33.248 22.857 32.796 25.602 32.647 C 31.013 32.328 36.058 32.646 40.715 29.657 C 40.009 30.592 40.136 31.969 40.726 32.993 C 41.296 34.012 42.236 34.785 43.166 35.511 C 44.195 36.351 46.257 38.745 47.567 38.946 C 48.709 39.124 49.763 38.022 50.643 37.328 C 53.075 35.45 55.258 33.288 57.177 30.904 C 61.408 25.635 64.681 18.939 65.274 12.15 L 65.32 12.141 Z" fill="#E3976E"/>
  <path d="M 24.139 26.258 C 24.014 26.722 23.553 26.988 23.089 26.863 C 22.625 26.738 22.359 26.277 22.484 25.812 C 22.609 25.348 23.07 25.083 23.534 25.208 C 23.999 25.332 24.264 25.794 24.139 26.258 Z" fill="#FFCEA6"/>
  <path d="M 27.311 25.25 C 27.257 25.451 27.047 25.59 26.824 25.53 C 26.602 25.47 26.484 25.265 26.544 25.043 C 26.604 24.821 26.809 24.703 27.031 24.763 C 27.253 24.823 27.371 25.028 27.311 25.25 Z" fill="#FFCEA6"/>
  <path d="M 26.659 22.606 C 26.55 23.01 26.146 23.226 25.762 23.123 C 25.379 23.02 25.142 22.61 25.246 22.226 C 25.349 21.843 25.764 21.586 26.148 21.69 C 26.531 21.793 26.767 22.203 26.659 22.606 Z" fill="#FFCEA6"/>
  <path d="M 29.445 21.581 C 29.391 21.783 29.181 21.921 28.959 21.861 C 28.737 21.802 28.619 21.597 28.678 21.375 C 28.738 21.153 28.943 21.035 29.165 21.094 C 29.387 21.154 29.505 21.359 29.445 21.581 Z" fill="#FFCEA6"/>
  <path d="M 32.301 21.267 C 32.208 21.61 31.85 21.817 31.506 21.724 C 31.163 21.632 30.957 21.273 31.049 20.93 C 31.141 20.587 31.5 20.381 31.843 20.473 C 32.186 20.565 32.393 20.924 32.301 21.267 Z" fill="#FFCEA6"/>
  <path d="M 31.954 17.646 C 31.916 17.787 31.763 17.875 31.621 17.837 C 31.48 17.799 31.392 17.646 31.43 17.504 C 31.468 17.363 31.621 17.275 31.763 17.313 C 31.904 17.351 31.992 17.504 31.954 17.646 Z" fill="#FFCEA6"/>
  <path d="M 30.783 15.079 C 30.734 15.261 30.529 15.379 30.348 15.33 C 30.166 15.281 30.048 15.076 30.097 14.895 C 30.146 14.713 30.351 14.595 30.532 14.644 C 30.714 14.693 30.832 14.898 30.783 15.079 Z" fill="#FFCEA6"/>
  <path d="M 35.316 16.494 C 35.24 16.776 34.953 16.959 34.65 16.877 C 34.348 16.796 34.185 16.514 34.267 16.211 C 34.348 15.909 34.63 15.746 34.933 15.828 C 35.236 15.909 35.392 16.211 35.316 16.494 Z" fill="#FFCEA6"/>
  <path d="M 35.464 19.001 C 35.405 19.223 35.179 19.336 34.978 19.282 C 34.776 19.227 34.643 18.997 34.697 18.795 C 34.752 18.593 34.982 18.46 35.184 18.515 C 35.386 18.569 35.519 18.799 35.464 19.001 Z" fill="#FFCEA6"/>
  <path d="M 37.657 15.197 C 38.013 15.293 38.38 15.082 38.476 14.725 C 38.572 14.368 38.361 14.001 38.004 13.905 C 37.648 13.809 37.281 14.021 37.185 14.377 C 37.089 14.734 37.3 15.101 37.657 15.197 Z" fill="#FFCEA6"/>
  <path d="M 36.44 12.315 C 36.321 12.76 35.86 13.025 35.416 12.906 C 34.972 12.786 34.706 12.325 34.826 11.881 C 34.945 11.437 35.406 11.171 35.85 11.291 C 36.294 11.41 36.56 11.871 36.44 12.315 Z" fill="#FFCEA6"/>
  <path d="M 41.308 11.763 C 41.167 12.288 40.629 12.598 40.104 12.457 C 39.579 12.316 39.269 11.778 39.41 11.253 C 39.552 10.728 40.09 10.418 40.614 10.56 C 41.139 10.701 41.449 11.239 41.308 11.763 Z" fill="#FFCEA6"/>
  <path d="M 41.407 15.015 C 41.336 15.278 41.08 15.425 40.818 15.355 C 40.555 15.284 40.408 15.028 40.478 14.766 C 40.549 14.503 40.805 14.356 41.068 14.426 C 41.33 14.497 41.478 14.753 41.407 15.015 Z" fill="#FFCEA6"/>
  <path d="M 45.197 17.745 C 45.028 18.371 44.388 18.74 43.762 18.571 C 43.136 18.403 42.768 17.762 42.936 17.137 C 43.104 16.511 43.745 16.142 44.37 16.311 C 44.996 16.479 45.365 17.119 45.197 17.745 Z" fill="#FFCEA6"/>
  <path d="M 43.523 19.459 C 43.387 19.964 42.875 20.259 42.371 20.123 C 41.866 19.988 41.571 19.475 41.707 18.971 C 41.842 18.466 42.355 18.171 42.859 18.307 C 43.364 18.442 43.659 18.955 43.523 19.459 Z" fill="#FFCEA6"/>
  <path d="M 46.986 19.785 C 46.937 19.966 46.732 20.084 46.55 20.036 C 46.368 19.987 46.25 19.782 46.299 19.6 C 46.348 19.418 46.553 19.3 46.735 19.349 C 46.916 19.398 47.034 19.603 46.986 19.785 Z" fill="#FFCEA6"/>
  <path d="M 46.342 14.936 C 46.288 15.138 46.077 15.276 45.855 15.216 C 45.633 15.157 45.515 14.952 45.575 14.73 C 45.635 14.508 45.84 14.39 46.062 14.449 C 46.284 14.509 46.402 14.714 46.342 14.936 Z" fill="#FFCEA6"/>
  <path d="M 48.729 13.305 C 48.539 14.012 47.822 14.425 47.095 14.23 C 46.368 14.034 45.975 13.322 46.165 12.616 C 46.355 11.909 47.073 11.496 47.779 11.686 C 48.486 11.876 48.919 12.599 48.729 13.305 Z" fill="#FFCEA6"/>
  <path d="M 50.232 17.13 C 50.129 17.514 49.74 17.755 49.336 17.646 C 48.932 17.538 48.716 17.133 48.819 16.75 C 48.923 16.366 49.312 16.125 49.716 16.233 C 50.12 16.342 50.341 16.726 50.232 17.13 Z" fill="#FFCEA6"/>
  <path d="M 51.048 22.869 C 51.405 22.965 51.771 22.754 51.867 22.397 C 51.963 22.04 51.752 21.673 51.395 21.577 C 51.039 21.481 50.672 21.693 50.576 22.049 C 50.48 22.406 50.691 22.773 51.048 22.869 Z" fill="#FFCEA6"/>
  <path d="M 54.9 19.252 C 54.748 19.817 54.159 20.156 53.594 20.004 C 53.028 19.852 52.689 19.263 52.841 18.698 C 52.993 18.133 53.582 17.793 54.147 17.945 C 54.713 18.097 55.052 18.686 54.9 19.252 Z" fill="#FFCEA6"/>
  <path d="M 54.978 22.823 C 54.908 23.085 54.626 23.247 54.363 23.177 C 54.101 23.106 53.939 22.824 54.009 22.562 C 54.08 22.3 54.362 22.137 54.624 22.208 C 54.886 22.278 55.049 22.56 54.978 22.823 Z" fill="#FFCEA6"/>
  <path d="M 55.463 25.204 C 55.349 25.628 54.914 25.879 54.49 25.765 C 54.066 25.651 53.815 25.215 53.929 24.791 C 54.043 24.368 54.478 24.117 54.902 24.231 C 55.326 24.345 55.577 24.78 55.463 25.204 Z" fill="#FFCEA6"/>
  <path d="M 59.642 22.302 C 59.474 22.928 58.833 23.297 58.208 23.129 C 57.582 22.96 57.213 22.32 57.381 21.694 C 57.55 21.068 58.19 20.7 58.816 20.868 C 59.442 21.036 59.81 21.677 59.642 22.302 Z" fill="#FFCEA6"/>
  <path d="M 61.5 19.339 C 61.397 19.722 61.013 19.944 60.629 19.841 C 60.246 19.737 60.024 19.353 60.128 18.97 C 60.231 18.586 60.615 18.365 60.998 18.468 C 61.382 18.571 61.603 18.955 61.5 19.339 Z" fill="#FFCEA6"/>
  <path d="M 58.819 19.007 C 58.726 19.35 58.368 19.557 58.025 19.465 C 57.681 19.372 57.475 19.014 57.567 18.67 C 57.66 18.327 58.018 18.121 58.361 18.213 C 58.704 18.305 58.911 18.664 58.819 19.007 Z" fill="#FFCEA6"/>
  <path d="M 22.149 28.666 C 22.09 28.888 21.854 29.041 21.611 28.976 C 21.369 28.911 21.236 28.68 21.302 28.438 C 21.367 28.196 21.592 28.083 21.834 28.149 C 22.076 28.214 22.209 28.444 22.149 28.666 Z" fill="#FFCEA6"/>
</svg>